<svg width="138" height="24" viewBox="0 0 138 24" fill="none" xmlns="http://www.w3.org/2000/svg">
<path d="M22 9.24L14.81 8.62L12 2L9.19 8.63L2 9.24L7.46 13.97L5.82 21L12 17.27L18.18 21L16.55 13.97L22 9.24ZM12 15.4L8.24 17.67L9.24 13.39L5.92 10.51L10.3 10.13L12 6.1L13.71 10.14L18.09 10.52L14.77 13.4L15.77 17.68L12 15.4Z" fill="black"/>
<path d="M48 9.24L40.81 8.62L38 2L35.19 8.63L28 9.24L33.46 13.97L31.82 21L38 17.27L44.18 21L42.55 13.97L48 9.24ZM38 15.4L34.24 17.67L35.24 13.39L31.92 10.51L36.3 10.13L38 6.1L39.71 10.14L44.09 10.52L40.77 13.4L41.77 17.68L38 15.4Z" fill="black"/>
<path d="M78 9.24L70.81 8.62L68 2L65.19 8.63L58 9.24L63.46 13.97L61.82 21L68 17.27L74.18 21L72.55 13.97L78 9.24ZM68 15.4L64.24 17.67L65.24 13.39L61.92 10.51L66.3 10.13L68 6.1L69.71 10.14L74.09 10.52L70.77 13.4L71.77 17.68L68 15.4Z" fill="black"/>
<path d="M106 9.24L98.81 8.62L96 2L93.19 8.63L86 9.24L91.46 13.97L89.82 21L96 17.27L102.18 21L100.55 13.97L106 9.24ZM96 15.4L92.24 17.67L93.24 13.39L89.92 10.51L94.3 10.13L96 6.1L97.71 10.14L102.09 10.52L98.77 13.4L99.77 17.68L96 15.4Z" fill="black"/>
<path d="M136 9.24L128.81 8.62L126 2L123.19 8.63L116 9.24L121.46 13.97L119.82 21L126 17.27L132.18 21L130.55 13.97L136 9.24ZM126 15.4V6.1L127.71 10.14L132.09 10.52L128.77 13.4L129.77 17.68L126 15.4Z" fill="black"/>
</svg>
